<svg width="48" height="48" viewBox="0 0 48 48" fill="none" xmlns="http://www.w3.org/2000/svg">
<path d="M24 46C36.1503 46 46 36.1503 46 24C46 11.8497 36.1503 2 24 2C11.8497 2 2 11.8497 2 24C2 36.1503 11.8497 46 24 46Z" stroke="black" stroke-width="3"/>
<path fill-rule="evenodd" clip-rule="evenodd" d="M15.1115 20.9319C15.3899 21.1137 16.2287 21.6536 17.6283 22.5512C19.0278 23.4489 20.1 24.1402 20.8448 24.6249C20.9266 24.678 21.1005 24.7935 21.3665 24.9715C21.6324 25.1496 21.8535 25.2937 22.0293 25.4034C22.2053 25.5132 22.4181 25.6363 22.6678 25.7726C22.9175 25.9089 23.1528 26.0113 23.3738 26.0792C23.5948 26.1475 23.7994 26.1814 23.9876 26.1814H24H24.0124C24.2006 26.1814 24.4052 26.1475 24.6262 26.0792C24.8472 26.0113 25.0827 25.9087 25.3322 25.7726C25.5817 25.6362 25.7945 25.5132 25.9705 25.4034C26.1465 25.2937 26.3674 25.1496 26.6334 24.9715C26.8993 24.7933 27.0734 24.678 27.1552 24.6249C27.908 24.14 29.8234 22.909 32.9007 20.9316C33.4981 20.5454 33.9972 20.0794 34.3983 19.5339C34.7996 18.9887 35 18.4167 35 17.8182C35 17.3182 34.8055 16.8901 34.4167 16.5341C34.0279 16.178 33.5674 16 33.0357 16H14.9642C14.334 16 13.8491 16.1969 13.5095 16.5908C13.1698 16.9848 13 17.4773 13 18.0682C13 18.5455 13.2251 19.0626 13.6752 19.6194C14.1253 20.1762 14.6042 20.6138 15.1115 20.9319ZM33.7722 22.1477C31.0879 23.8294 29.0498 25.1363 27.6586 26.0682C27.1921 26.3863 26.8136 26.6346 26.5229 26.8124C26.2324 26.9905 25.8457 27.1723 25.3628 27.3579C24.88 27.5436 24.4299 27.6363 24.0125 27.6363H24H23.9876C23.5702 27.6363 23.12 27.5436 22.6372 27.3579C22.1544 27.1723 21.7676 26.9905 21.4771 26.8124C21.1866 26.6346 20.808 26.3863 20.3415 26.0682C19.2365 25.3182 17.2028 24.0113 14.24 22.1477C13.7735 21.86 13.3601 21.5303 13 21.1591V30.1816C13 30.6818 13.1923 31.1097 13.577 31.4658C13.9617 31.822 14.4241 32 14.9643 32H33.0358C33.5759 32 34.0383 31.822 34.423 31.4658C34.8079 31.1096 35 30.6818 35 30.1816V21.1591C34.648 21.5226 34.2389 21.8523 33.7722 22.1477Z" fill="black"/>
</svg>
