<svg width="48" height="48" viewBox="0 0 48 48" fill="none" xmlns="http://www.w3.org/2000/svg">
<path d="M24 46C36.1503 46 46 36.1503 46 24C46 11.8497 36.1503 2 24 2C11.8497 2 2 11.8497 2 24C2 36.1503 11.8497 46 24 46Z" stroke="black" stroke-width="3"/>
<path fill-rule="evenodd" clip-rule="evenodd" d="M12 24.3044C12 29.7398 15.438 34.3519 20.2065 35.9789C20.8069 36.0922 21.0257 35.7123 21.0257 35.386C21.0257 35.0937 21.0154 34.3202 21.0095 33.2937C17.6716 34.0369 16.9674 31.644 16.9674 31.644C16.4215 30.2225 15.6347 29.8441 15.6347 29.8441C14.5452 29.0804 15.7172 29.0963 15.7172 29.0963C16.9217 29.1832 17.5552 30.3645 17.5552 30.3645C18.6264 32.2445 20.3642 31.7014 21.0478 31.3865C21.1568 30.5911 21.467 30.0495 21.8095 29.7413C19.145 29.4309 16.3434 28.3757 16.3434 23.6609C16.3434 22.3171 16.8112 21.2189 17.5788 20.3586C17.4558 20.0474 17.044 18.7965 17.6967 17.1031C17.6967 17.1031 18.7044 16.7715 20.9962 18.3637C21.9539 18.091 22.9801 17.9543 24.0004 17.9498C25.0199 17.9543 26.0461 18.091 27.0052 18.3637C29.2956 16.7715 30.3019 17.1031 30.3019 17.1031C30.956 18.7965 30.5442 20.0474 30.4212 20.3586C31.1903 21.2189 31.6544 22.3171 31.6544 23.6609C31.6544 28.387 28.8491 29.4271 26.1758 29.7323C26.6067 30.1122 26.9898 30.863 26.9898 32.0104C26.9898 33.6555 26.9758 34.9826 26.9758 35.386C26.9758 35.7153 27.1916 36.0975 27.8009 35.9774C32.5649 34.3474 36 29.7391 36 24.3044C36 17.5087 30.6267 12 23.9989 12C17.3733 12 12 17.5087 12 24.3044Z" fill="black"/>
</svg>
