<svg width="1440" height="1024" viewBox="0 0 1440 1024" fill="none" xmlns="http://www.w3.org/2000/svg">
<mask id="mask0_426_1731" style="mask-type:alpha" maskUnits="userSpaceOnUse" x="0" y="0" width="1440" height="1024">
<rect width="1440" height="1024" fill="#D9D9D9"/>
</mask>
<g mask="url(#mask0_426_1731)">
<line x1="-316.02" y1="2150.52" x2="629.338" y2="513.113" stroke="#7B7B7B" stroke-width="0.8"/>
<line x1="-672.288" y1="1944.83" x2="273.07" y2="307.422" stroke="#7B7B7B" stroke-width="0.8"/>
<line x1="-601.034" y1="1985.97" x2="344.324" y2="348.56" stroke="#7B7B7B" stroke-width="0.8"/>
<line x1="-387.273" y1="2109.38" x2="558.085" y2="471.975" stroke="#7B7B7B" stroke-width="0.8"/>
<line x1="-743.542" y1="1903.69" x2="201.816" y2="266.283" stroke="#7B7B7B" stroke-width="0.8"/>
<line x1="-458.527" y1="2068.24" x2="486.831" y2="430.836" stroke="#7B7B7B" stroke-width="0.8"/>
<line x1="-814.795" y1="1862.55" x2="130.563" y2="225.145" stroke="#7B7B7B" stroke-width="0.8"/>
<line x1="-886.049" y1="1821.41" x2="59.309" y2="184.007" stroke="#7B7B7B" stroke-width="0.8"/>
<line x1="-529.78" y1="2027.11" x2="415.578" y2="389.698" stroke="#7B7B7B" stroke-width="0.8"/>
<line x1="-1483.1" y1="717.154" x2="13.2223" y2="1581.06" stroke="#7B7B7B" stroke-width="0.8"/>
<line x1="-1441.97" y1="645.901" x2="54.361" y2="1509.81" stroke="#7B7B7B" stroke-width="0.8"/>
<line x1="-1400.83" y1="574.647" x2="95.4991" y2="1438.55" stroke="#7B7B7B" stroke-width="0.8"/>
<line x1="-1359.69" y1="503.394" x2="136.637" y2="1367.3" stroke="#7B7B7B" stroke-width="0.8"/>
<line x1="-1236.68" y1="290.345" x2="259.641" y2="1154.25" stroke="#7B7B7B" stroke-width="0.8"/>
<line x1="-1030.99" y1="-65.9228" x2="465.333" y2="797.981" stroke="#7B7B7B" stroke-width="0.8"/>
<line x1="-1277.82" y1="361.599" x2="218.502" y2="1225.5" stroke="#7B7B7B" stroke-width="0.8"/>
<line x1="-1318.55" y1="432.14" x2="177.776" y2="1296.04" stroke="#7B7B7B" stroke-width="0.8"/>
<line x1="-1072.13" y1="5.33084" x2="424.194" y2="869.235" stroke="#7B7B7B" stroke-width="0.8"/>
<line x1="-1195.55" y1="219.092" x2="300.779" y2="1083" stroke="#7B7B7B" stroke-width="0.8"/>
<line x1="-989.855" y1="-137.176" x2="506.471" y2="726.728" stroke="#7B7B7B" stroke-width="0.8"/>
<line x1="-1154.41" y1="147.838" x2="341.918" y2="1011.74" stroke="#7B7B7B" stroke-width="0.8"/>
<line x1="-948.717" y1="-208.43" x2="547.609" y2="655.474" stroke="#7B7B7B" stroke-width="0.8"/>
<line x1="-1113.27" y1="76.5845" x2="383.056" y2="940.489" stroke="#7B7B7B" stroke-width="0.8"/>
<line x1="-907.579" y1="-279.684" x2="588.747" y2="584.221" stroke="#7B7B7B" stroke-width="0.8"/>
<line x1="-866.441" y1="-350.937" x2="629.885" y2="512.967" stroke="#7B7B7B" stroke-width="0.8"/>
<line x1="-154.452" y1="60.591" x2="790.906" y2="-1576.82" stroke="#7B7B7B" stroke-width="0.8"/>
<line x1="-225.706" y1="19.4528" x2="719.652" y2="-1617.96" stroke="#7B7B7B" stroke-width="0.8"/>
<line x1="629.338" y1="513.112" x2="1574.7" y2="-1124.3" stroke="#7B7B7B" stroke-width="0.8"/>
<line x1="273.07" y1="307.421" x2="1218.43" y2="-1329.99" stroke="#7B7B7B" stroke-width="0.8"/>
<line x1="344.324" y1="348.559" x2="1289.68" y2="-1288.85" stroke="#7B7B7B" stroke-width="0.8"/>
<line x1="558.085" y1="471.974" x2="1503.44" y2="-1165.43" stroke="#7B7B7B" stroke-width="0.8"/>
<line x1="201.816" y1="266.282" x2="1147.17" y2="-1371.13" stroke="#7B7B7B" stroke-width="0.8"/>
<line x1="486.831" y1="430.836" x2="1432.19" y2="-1206.57" stroke="#7B7B7B" stroke-width="0.8"/>
<line x1="130.563" y1="225.144" x2="1075.92" y2="-1412.26" stroke="#7B7B7B" stroke-width="0.8"/>
<line x1="59.3089" y1="184.006" x2="1004.67" y2="-1453.4" stroke="#7B7B7B" stroke-width="0.8"/>
<line x1="-11.9446" y1="142.868" x2="933.414" y2="-1494.54" stroke="#7B7B7B" stroke-width="0.8"/>
<line x1="-83.1985" y1="101.729" x2="862.16" y2="-1535.68" stroke="#7B7B7B" stroke-width="0.8"/>
<line x1="415.577" y1="389.697" x2="1360.94" y2="-1247.71" stroke="#7B7B7B" stroke-width="0.8"/>
<line x1="-784.575" y1="-492.732" x2="711.751" y2="371.172" stroke="#7B7B7B" stroke-width="0.8"/>
<line x1="-578.883" y1="-849" x2="917.443" y2="14.904" stroke="#7B7B7B" stroke-width="0.8"/>
<line x1="-825.714" y1="-421.478" x2="670.612" y2="442.426" stroke="#7B7B7B" stroke-width="0.8"/>
<line x1="-866.441" y1="-350.937" x2="629.885" y2="512.967" stroke="#7B7B7B" stroke-width="0.8"/>
<line x1="-620.022" y1="-777.747" x2="876.304" y2="86.1577" stroke="#7B7B7B" stroke-width="0.8"/>
<line x1="-743.437" y1="-563.986" x2="752.889" y2="299.918" stroke="#7B7B7B" stroke-width="0.8"/>
<line x1="-702.299" y1="-635.24" x2="794.027" y2="228.665" stroke="#7B7B7B" stroke-width="0.8"/>
<line x1="-661.16" y1="-706.493" x2="835.166" y2="157.411" stroke="#7B7B7B" stroke-width="0.8"/>
<line x1="396.516" y1="2561.9" x2="1341.87" y2="924.496" stroke="#7B7B7B" stroke-width="0.8"/>
<line x1="40.2483" y1="2356.21" x2="985.606" y2="718.804" stroke="#7B7B7B" stroke-width="0.8"/>
<line x1="111.501" y1="2397.35" x2="1056.86" y2="759.943" stroke="#7B7B7B" stroke-width="0.8"/>
<line x1="325.262" y1="2520.77" x2="1270.62" y2="883.357" stroke="#7B7B7B" stroke-width="0.8"/>
<line x1="-31.0056" y1="2315.07" x2="914.352" y2="677.666" stroke="#7B7B7B" stroke-width="0.8"/>
<line x1="254.009" y1="2479.63" x2="1199.37" y2="842.219" stroke="#7B7B7B" stroke-width="0.8"/>
<line x1="-102.259" y1="2273.94" x2="843.099" y2="636.528" stroke="#7B7B7B" stroke-width="0.8"/>
<line x1="-173.513" y1="2232.8" x2="771.845" y2="595.389" stroke="#7B7B7B" stroke-width="0.8"/>
<line x1="-244.766" y1="2191.66" x2="700.592" y2="554.251" stroke="#7B7B7B" stroke-width="0.8"/>
<line x1="-316.02" y1="2150.52" x2="629.338" y2="513.112" stroke="#7B7B7B" stroke-width="0.8"/>
<line x1="182.755" y1="2438.49" x2="1128.11" y2="801.081" stroke="#7B7B7B" stroke-width="0.8"/>
<line x1="539.024" y1="2644.18" x2="1484.38" y2="1006.77" stroke="#7B7B7B" stroke-width="0.8"/>
<line x1="467.77" y1="2603.04" x2="1413.13" y2="965.634" stroke="#7B7B7B" stroke-width="0.8"/>
<line x1="465.331" y1="797.981" x2="1961.66" y2="1661.89" stroke="#7B7B7B" stroke-width="0.8"/>
<line x1="424.193" y1="869.235" x2="1920.52" y2="1733.14" stroke="#7B7B7B" stroke-width="0.8"/>
<line x1="506.469" y1="726.728" x2="2002.8" y2="1590.63" stroke="#7B7B7B" stroke-width="0.8"/>
<line x1="341.916" y1="1011.74" x2="1838.24" y2="1875.65" stroke="#7B7B7B" stroke-width="0.8"/>
<line x1="547.607" y1="655.474" x2="2043.93" y2="1519.38" stroke="#7B7B7B" stroke-width="0.8"/>
<line x1="383.054" y1="940.488" x2="1879.38" y2="1804.39" stroke="#7B7B7B" stroke-width="0.8"/>
<line x1="588.746" y1="584.22" x2="2085.07" y2="1448.12" stroke="#7B7B7B" stroke-width="0.8"/>
<line x1="629.885" y1="512.967" x2="2126.21" y2="1376.87" stroke="#7B7B7B" stroke-width="0.8"/>
<line x1="1341.87" y1="924.496" x2="2287.23" y2="-712.913" stroke="#7B7B7B" stroke-width="0.8"/>
<line x1="985.607" y1="718.804" x2="1930.97" y2="-918.604" stroke="#7B7B7B" stroke-width="0.8"/>
<line x1="1056.86" y1="759.942" x2="2002.22" y2="-877.466" stroke="#7B7B7B" stroke-width="0.8"/>
<line x1="1270.62" y1="883.357" x2="2215.98" y2="-754.051" stroke="#7B7B7B" stroke-width="0.8"/>
<line x1="914.352" y1="677.665" x2="1859.71" y2="-959.743" stroke="#7B7B7B" stroke-width="0.8"/>
<line x1="1199.37" y1="842.219" x2="2144.73" y2="-795.189" stroke="#7B7B7B" stroke-width="0.8"/>
<line x1="843.099" y1="636.528" x2="1788.46" y2="-1000.88" stroke="#7B7B7B" stroke-width="0.8"/>
<line x1="771.846" y1="595.389" x2="1717.2" y2="-1042.02" stroke="#7B7B7B" stroke-width="0.8"/>
<line x1="700.592" y1="554.251" x2="1645.95" y2="-1083.16" stroke="#7B7B7B" stroke-width="0.8"/>
<line x1="629.338" y1="513.112" x2="1574.7" y2="-1124.3" stroke="#7B7B7B" stroke-width="0.8"/>
<line x1="1128.11" y1="801.08" x2="2073.47" y2="-836.328" stroke="#7B7B7B" stroke-width="0.8"/>
<line x1="1413.13" y1="965.633" x2="2358.49" y2="-671.775" stroke="#7B7B7B" stroke-width="0.8"/>
<line x1="711.75" y1="371.171" x2="2208.08" y2="1235.08" stroke="#7B7B7B" stroke-width="0.8"/>
<line x1="917.441" y1="14.9031" x2="2413.77" y2="878.807" stroke="#7B7B7B" stroke-width="0.8"/>
<line x1="670.612" y1="442.425" x2="2166.94" y2="1306.33" stroke="#7B7B7B" stroke-width="0.8"/>
<line x1="629.885" y1="512.966" x2="2126.21" y2="1376.87" stroke="#7B7B7B" stroke-width="0.8"/>
<line x1="876.303" y1="86.1565" x2="2372.63" y2="950.061" stroke="#7B7B7B" stroke-width="0.8"/>
<line x1="752.888" y1="299.918" x2="2249.21" y2="1163.82" stroke="#7B7B7B" stroke-width="0.8"/>
<line x1="958.58" y1="-56.3508" x2="2454.91" y2="807.553" stroke="#7B7B7B" stroke-width="0.8"/>
<line x1="794.027" y1="228.664" x2="2290.35" y2="1092.57" stroke="#7B7B7B" stroke-width="0.8"/>
<line x1="999.719" y1="-127.604" x2="2496.04" y2="736.3" stroke="#7B7B7B" stroke-width="0.8"/>
<line x1="835.165" y1="157.41" x2="2331.49" y2="1021.31" stroke="#7B7B7B" stroke-width="0.8"/>
<line x1="1040.86" y1="-198.858" x2="2537.18" y2="665.046" stroke="#7B7B7B" stroke-width="0.8"/>
<line x1="1081.99" y1="-270.111" x2="2578.32" y2="593.793" stroke="#7B7B7B" stroke-width="0.8"/>
<line x1="1205" y1="-483.159" x2="2701.32" y2="380.745" stroke="#7B7B7B" stroke-width="0.8"/>
<line x1="1410.69" y1="-839.428" x2="2907.02" y2="24.4763" stroke="#7B7B7B" stroke-width="0.8"/>
<line x1="1163.86" y1="-411.906" x2="2660.19" y2="451.998" stroke="#7B7B7B" stroke-width="0.8"/>
<line x1="1123.13" y1="-341.365" x2="2619.46" y2="522.539" stroke="#7B7B7B" stroke-width="0.8"/>
<line x1="1369.55" y1="-768.174" x2="2865.88" y2="95.7301" stroke="#7B7B7B" stroke-width="0.8"/>
<line x1="1246.14" y1="-554.413" x2="2742.46" y2="309.491" stroke="#7B7B7B" stroke-width="0.8"/>
<line x1="1287.27" y1="-625.667" x2="2783.6" y2="238.237" stroke="#7B7B7B" stroke-width="0.8"/>
<line x1="1328.41" y1="-696.921" x2="2824.74" y2="166.984" stroke="#7B7B7B" stroke-width="0.8"/>
</g>
</svg>
