<svg width="2236" height="1590" viewBox="0 0 2236 1590" fill="none" xmlns="http://www.w3.org/2000/svg">
<mask id="mask0_426_1731" style="mask-type:alpha" maskUnits="userSpaceOnUse" x="0" y="0" width="2236" height="1590">
<rect width="2236" height="1590" fill="#AAAAAA"/>
</mask>
<g mask="url(#mask0_426_1731)">
<line x1="-5.81533" y1="2305.33" x2="640.848" y2="528.633" stroke="#AAAAAA" stroke-width="0.8"/>
<line x1="-392.389" y1="2164.62" x2="254.274" y2="387.932" stroke="#AAAAAA" stroke-width="0.8"/>
<line x1="-315.075" y1="2192.76" x2="331.588" y2="416.072" stroke="#AAAAAA" stroke-width="0.8"/>
<line x1="-83.1303" y1="2277.18" x2="563.533" y2="500.493" stroke="#AAAAAA" stroke-width="0.8"/>
<line x1="-469.704" y1="2136.48" x2="176.959" y2="359.792" stroke="#AAAAAA" stroke-width="0.8"/>
<line x1="-160.445" y1="2249.04" x2="486.218" y2="472.353" stroke="#AAAAAA" stroke-width="0.8"/>
<line x1="-547.019" y1="2108.34" x2="99.644" y2="331.652" stroke="#AAAAAA" stroke-width="0.8"/>
<line x1="-624.333" y1="2080.2" x2="22.3296" y2="303.511" stroke="#AAAAAA" stroke-width="0.8"/>
<line x1="-237.76" y1="2220.9" x2="408.903" y2="444.212" stroke="#AAAAAA" stroke-width="0.8"/>
<line x1="844.646" y1="2614.87" x2="1491.31" y2="838.176" stroke="#AAAAAA" stroke-width="0.8"/>
<line x1="458.073" y1="2474.17" x2="1104.74" y2="697.475" stroke="#AAAAAA" stroke-width="0.8"/>
<line x1="535.387" y1="2502.31" x2="1182.05" y2="725.615" stroke="#AAAAAA" stroke-width="0.8"/>
<line x1="767.332" y1="2586.73" x2="1414" y2="810.036" stroke="#AAAAAA" stroke-width="0.8"/>
<line x1="380.758" y1="2446.03" x2="1027.42" y2="669.335" stroke="#AAAAAA" stroke-width="0.8"/>
<line x1="690.017" y1="2558.59" x2="1336.68" y2="781.895" stroke="#AAAAAA" stroke-width="0.8"/>
<line x1="303.443" y1="2417.89" x2="950.106" y2="641.195" stroke="#AAAAAA" stroke-width="0.8"/>
<line x1="226.128" y1="2389.75" x2="872.791" y2="613.053" stroke="#AAAAAA" stroke-width="0.8"/>
<line x1="148.814" y1="2361.61" x2="795.477" y2="584.913" stroke="#AAAAAA" stroke-width="0.8"/>
<line x1="71.4991" y1="2333.47" x2="718.162" y2="556.773" stroke="#AAAAAA" stroke-width="0.8"/>
<line x1="612.702" y1="2530.45" x2="1259.37" y2="753.755" stroke="#AAAAAA" stroke-width="0.8"/>
<line x1="-581.748" y1="1483.25" x2="1041.86" y2="2074.2" stroke="#AAAAAA" stroke-width="0.8"/>
<line x1="-609.889" y1="1560.57" x2="1013.72" y2="2151.51" stroke="#AAAAAA" stroke-width="0.8"/>
<line x1="-553.608" y1="1405.94" x2="1070" y2="1996.88" stroke="#AAAAAA" stroke-width="0.8"/>
<line x1="-525.468" y1="1328.62" x2="1098.14" y2="1919.57" stroke="#AAAAAA" stroke-width="0.8"/>
<line x1="-497.328" y1="1251.31" x2="1126.28" y2="1842.26" stroke="#AAAAAA" stroke-width="0.8"/>
<line x1="-469.188" y1="1174" x2="1154.42" y2="1764.94" stroke="#AAAAAA" stroke-width="0.8"/>
<line x1="-385.048" y1="942.824" x2="1238.56" y2="1533.77" stroke="#AAAAAA" stroke-width="0.8"/>
<line x1="-244.347" y1="556.251" x2="1379.26" y2="1147.2" stroke="#AAAAAA" stroke-width="0.8"/>
<line x1="-413.189" y1="1020.14" x2="1210.42" y2="1611.08" stroke="#AAAAAA" stroke-width="0.8"/>
<line x1="-441.047" y1="1096.68" x2="1182.56" y2="1687.63" stroke="#AAAAAA" stroke-width="0.8"/>
<line x1="-272.487" y1="633.566" x2="1351.12" y2="1224.51" stroke="#AAAAAA" stroke-width="0.8"/>
<line x1="-356.908" y1="865.51" x2="1266.7" y2="1456.46" stroke="#AAAAAA" stroke-width="0.8"/>
<line x1="-216.206" y1="478.936" x2="1407.4" y2="1069.88" stroke="#AAAAAA" stroke-width="0.8"/>
<line x1="-328.768" y1="788.195" x2="1294.84" y2="1379.14" stroke="#AAAAAA" stroke-width="0.8"/>
<line x1="-188.067" y1="401.621" x2="1435.54" y2="992.567" stroke="#AAAAAA" stroke-width="0.8"/>
<line x1="-300.628" y1="710.88" x2="1322.98" y2="1301.83" stroke="#AAAAAA" stroke-width="0.8"/>
<line x1="-159.927" y1="324.307" x2="1463.68" y2="915.252" stroke="#AAAAAA" stroke-width="0.8"/>
<line x1="-131.786" y1="246.992" x2="1491.82" y2="837.937" stroke="#AAAAAA" stroke-width="0.8"/>
<line x1="640.847" y1="528.632" x2="1287.51" y2="-1248.06" stroke="#AAAAAA" stroke-width="0.8"/>
<line x1="254.274" y1="387.931" x2="900.937" y2="-1388.76" stroke="#AAAAAA" stroke-width="0.8"/>
<line x1="331.588" y1="416.072" x2="978.251" y2="-1360.62" stroke="#AAAAAA" stroke-width="0.8"/>
<line x1="563.532" y1="500.492" x2="1210.19" y2="-1276.2" stroke="#AAAAAA" stroke-width="0.8"/>
<line x1="176.959" y1="359.791" x2="823.622" y2="-1416.9" stroke="#AAAAAA" stroke-width="0.8"/>
<line x1="486.217" y1="472.352" x2="1132.88" y2="-1304.34" stroke="#AAAAAA" stroke-width="0.8"/>
<line x1="99.6441" y1="331.651" x2="746.307" y2="-1445.04" stroke="#AAAAAA" stroke-width="0.8"/>
<line x1="22.3292" y1="303.51" x2="668.992" y2="-1473.18" stroke="#AAAAAA" stroke-width="0.8"/>
<line x1="-54.9853" y1="275.37" x2="591.678" y2="-1501.32" stroke="#AAAAAA" stroke-width="0.8"/>
<line x1="-132.3" y1="247.23" x2="514.363" y2="-1529.46" stroke="#AAAAAA" stroke-width="0.8"/>
<line x1="408.903" y1="444.212" x2="1055.57" y2="-1332.48" stroke="#AAAAAA" stroke-width="0.8"/>
<line x1="1491.31" y1="838.175" x2="2137.97" y2="-938.517" stroke="#AAAAAA" stroke-width="0.8"/>
<line x1="1104.74" y1="697.474" x2="1751.4" y2="-1079.22" stroke="#AAAAAA" stroke-width="0.8"/>
<line x1="1182.05" y1="725.614" x2="1828.71" y2="-1051.08" stroke="#AAAAAA" stroke-width="0.8"/>
<line x1="1413.99" y1="810.035" x2="2060.66" y2="-966.657" stroke="#AAAAAA" stroke-width="0.8"/>
<line x1="1027.42" y1="669.334" x2="1674.08" y2="-1107.36" stroke="#AAAAAA" stroke-width="0.8"/>
<line x1="1336.68" y1="781.895" x2="1983.34" y2="-994.797" stroke="#AAAAAA" stroke-width="0.8"/>
<line x1="950.106" y1="641.194" x2="1596.77" y2="-1135.5" stroke="#AAAAAA" stroke-width="0.8"/>
<line x1="872.791" y1="613.053" x2="1519.45" y2="-1163.64" stroke="#AAAAAA" stroke-width="0.8"/>
<line x1="795.477" y1="584.913" x2="1442.14" y2="-1191.78" stroke="#AAAAAA" stroke-width="0.8"/>
<line x1="718.161" y1="556.773" x2="1364.82" y2="-1219.92" stroke="#AAAAAA" stroke-width="0.8"/>
<line x1="1259.36" y1="753.755" x2="1906.03" y2="-1022.94" stroke="#AAAAAA" stroke-width="0.8"/>
<line x1="-75.787" y1="93.1351" x2="1547.82" y2="684.08" stroke="#AAAAAA" stroke-width="0.8"/>
<line x1="64.9142" y1="-293.438" x2="1688.52" y2="297.507" stroke="#AAAAAA" stroke-width="0.8"/>
<line x1="-103.928" y1="170.45" x2="1519.68" y2="761.395" stroke="#AAAAAA" stroke-width="0.8"/>
<line x1="-131.786" y1="246.992" x2="1491.82" y2="837.937" stroke="#AAAAAA" stroke-width="0.8"/>
<line x1="36.774" y1="-216.123" x2="1660.38" y2="374.822" stroke="#AAAAAA" stroke-width="0.8"/>
<line x1="-47.6469" y1="15.8207" x2="1575.96" y2="606.766" stroke="#AAAAAA" stroke-width="0.8"/>
<line x1="93.0548" y1="-370.753" x2="1716.66" y2="220.192" stroke="#AAAAAA" stroke-width="0.8"/>
<line x1="-19.5063" y1="-61.4942" x2="1604.1" y2="529.451" stroke="#AAAAAA" stroke-width="0.8"/>
<line x1="121.194" y1="-448.068" x2="1744.8" y2="142.878" stroke="#AAAAAA" stroke-width="0.8"/>
<line x1="8.63388" y1="-138.808" x2="1632.24" y2="452.137" stroke="#AAAAAA" stroke-width="0.8"/>
<line x1="149.335" y1="-525.382" x2="1772.94" y2="65.5629" stroke="#AAAAAA" stroke-width="0.8"/>
<line x1="1617.79" y1="2896.27" x2="2264.46" y2="1119.58" stroke="#AAAAAA" stroke-width="0.8"/>
<line x1="1231.22" y1="2755.57" x2="1877.88" y2="978.877" stroke="#AAAAAA" stroke-width="0.8"/>
<line x1="1308.53" y1="2783.71" x2="1955.2" y2="1007.02" stroke="#AAAAAA" stroke-width="0.8"/>
<line x1="1540.48" y1="2868.13" x2="2187.14" y2="1091.44" stroke="#AAAAAA" stroke-width="0.8"/>
<line x1="1153.9" y1="2727.43" x2="1800.57" y2="950.736" stroke="#AAAAAA" stroke-width="0.8"/>
<line x1="1463.16" y1="2839.99" x2="2109.83" y2="1063.3" stroke="#AAAAAA" stroke-width="0.8"/>
<line x1="1076.59" y1="2699.29" x2="1723.25" y2="922.596" stroke="#AAAAAA" stroke-width="0.8"/>
<line x1="999.275" y1="2671.15" x2="1645.94" y2="894.456" stroke="#AAAAAA" stroke-width="0.8"/>
<line x1="921.961" y1="2643.01" x2="1568.62" y2="866.316" stroke="#AAAAAA" stroke-width="0.8"/>
<line x1="844.646" y1="2614.87" x2="1491.31" y2="838.176" stroke="#AAAAAA" stroke-width="0.8"/>
<line x1="1385.85" y1="2811.85" x2="2032.51" y2="1035.16" stroke="#AAAAAA" stroke-width="0.8"/>
<line x1="2081.68" y1="3065.11" x2="2728.34" y2="1288.42" stroke="#AAAAAA" stroke-width="0.8"/>
<line x1="2159" y1="3093.25" x2="2805.66" y2="1316.56" stroke="#AAAAAA" stroke-width="0.8"/>
<line x1="2004.37" y1="3036.97" x2="2651.03" y2="1260.28" stroke="#AAAAAA" stroke-width="0.8"/>
<line x1="1927.05" y1="3008.83" x2="2573.71" y2="1232.14" stroke="#AAAAAA" stroke-width="0.8"/>
<line x1="1849.74" y1="2980.69" x2="2496.4" y2="1204" stroke="#AAAAAA" stroke-width="0.8"/>
<line x1="1772.42" y1="2952.55" x2="2419.09" y2="1175.86" stroke="#AAAAAA" stroke-width="0.8"/>
<line x1="1695.11" y1="2924.41" x2="2341.77" y2="1147.72" stroke="#AAAAAA" stroke-width="0.8"/>
<line x1="2236.31" y1="3121.39" x2="2882.97" y2="1344.7" stroke="#AAAAAA" stroke-width="0.8"/>
<line x1="1238.56" y1="1533.77" x2="2862.17" y2="2124.71" stroke="#AAAAAA" stroke-width="0.8"/>
<line x1="1379.26" y1="1147.2" x2="3002.87" y2="1738.14" stroke="#AAAAAA" stroke-width="0.8"/>
<line x1="1351.12" y1="1224.51" x2="2974.73" y2="1815.46" stroke="#AAAAAA" stroke-width="0.8"/>
<line x1="1266.7" y1="1456.45" x2="2890.31" y2="2047.4" stroke="#AAAAAA" stroke-width="0.8"/>
<line x1="1407.4" y1="1069.88" x2="3031.01" y2="1660.83" stroke="#AAAAAA" stroke-width="0.8"/>
<line x1="1294.84" y1="1379.14" x2="2918.45" y2="1970.09" stroke="#AAAAAA" stroke-width="0.8"/>
<line x1="1435.54" y1="992.567" x2="3059.15" y2="1583.51" stroke="#AAAAAA" stroke-width="0.8"/>
<line x1="1322.98" y1="1301.83" x2="2946.59" y2="1892.77" stroke="#AAAAAA" stroke-width="0.8"/>
<line x1="1463.68" y1="915.252" x2="3087.29" y2="1506.2" stroke="#AAAAAA" stroke-width="0.8"/>
<line x1="1491.82" y1="837.937" x2="3115.43" y2="1428.88" stroke="#AAAAAA" stroke-width="0.8"/>
<line x1="1877.88" y1="978.877" x2="2524.55" y2="-797.815" stroke="#AAAAAA" stroke-width="0.8"/>
<line x1="1955.2" y1="1007.02" x2="2601.86" y2="-769.675" stroke="#AAAAAA" stroke-width="0.8"/>
<line x1="2187.14" y1="1091.44" x2="2833.8" y2="-685.254" stroke="#AAAAAA" stroke-width="0.8"/>
<line x1="1800.57" y1="950.736" x2="2447.23" y2="-825.956" stroke="#AAAAAA" stroke-width="0.8"/>
<line x1="2109.83" y1="1063.3" x2="2756.49" y2="-713.395" stroke="#AAAAAA" stroke-width="0.8"/>
<line x1="1723.25" y1="922.596" x2="2369.92" y2="-854.096" stroke="#AAAAAA" stroke-width="0.8"/>
<line x1="1645.94" y1="894.456" x2="2292.6" y2="-882.236" stroke="#AAAAAA" stroke-width="0.8"/>
<line x1="1568.62" y1="866.316" x2="2215.29" y2="-910.376" stroke="#AAAAAA" stroke-width="0.8"/>
<line x1="1491.31" y1="838.175" x2="2137.97" y2="-938.517" stroke="#AAAAAA" stroke-width="0.8"/>
<line x1="2032.51" y1="1035.16" x2="2679.17" y2="-741.535" stroke="#AAAAAA" stroke-width="0.8"/>
<line x1="1547.82" y1="684.08" x2="3171.43" y2="1275.02" stroke="#AAAAAA" stroke-width="0.8"/>
<line x1="1688.52" y1="297.506" x2="3312.13" y2="888.452" stroke="#AAAAAA" stroke-width="0.8"/>
<line x1="1519.68" y1="761.395" x2="3143.29" y2="1352.34" stroke="#AAAAAA" stroke-width="0.8"/>
<line x1="1491.82" y1="837.936" x2="3115.43" y2="1428.88" stroke="#AAAAAA" stroke-width="0.8"/>
<line x1="1660.38" y1="374.821" x2="3283.99" y2="965.766" stroke="#AAAAAA" stroke-width="0.8"/>
<line x1="1575.96" y1="606.765" x2="3199.57" y2="1197.71" stroke="#AAAAAA" stroke-width="0.8"/>
<line x1="1716.66" y1="220.191" x2="3340.27" y2="811.137" stroke="#AAAAAA" stroke-width="0.8"/>
<line x1="1604.1" y1="529.45" x2="3227.71" y2="1120.4" stroke="#AAAAAA" stroke-width="0.8"/>
<line x1="1744.8" y1="142.877" x2="3368.41" y2="733.822" stroke="#AAAAAA" stroke-width="0.8"/>
<line x1="1632.24" y1="452.136" x2="3255.85" y2="1043.08" stroke="#AAAAAA" stroke-width="0.8"/>
<line x1="1772.94" y1="65.5621" x2="3396.55" y2="656.507" stroke="#AAAAAA" stroke-width="0.8"/>
<line x1="1801.08" y1="-11.7523" x2="3424.69" y2="579.193" stroke="#AAAAAA" stroke-width="0.8"/>
<line x1="1885.22" y1="-242.923" x2="3508.83" y2="348.022" stroke="#AAAAAA" stroke-width="0.8"/>
<line x1="1857.08" y1="-165.609" x2="3480.69" y2="425.336" stroke="#AAAAAA" stroke-width="0.8"/>
<line x1="1829.22" y1="-89.0672" x2="3452.83" y2="501.878" stroke="#AAAAAA" stroke-width="0.8"/>
<line x1="1997.78" y1="-552.182" x2="3621.39" y2="38.763" stroke="#AAAAAA" stroke-width="0.8"/>
<line x1="1913.36" y1="-320.238" x2="3536.97" y2="270.707" stroke="#AAAAAA" stroke-width="0.8"/>
<line x1="1941.5" y1="-397.553" x2="3565.11" y2="193.393" stroke="#AAAAAA" stroke-width="0.8"/>
<line x1="1969.64" y1="-474.868" x2="3593.25" y2="116.078" stroke="#AAAAAA" stroke-width="0.8"/>
</g>
</svg>
