<svg width="256" height="256" viewBox="0 0 256 256" fill="none" xmlns="http://www.w3.org/2000/svg">
<rect width="256" height="256" fill="white"/>
<path d="M43.2884 72.4352C43.4512 73.3585 43.8262 74.1809 44.4136 74.9023C45.0136 75.6057 45.7358 76.1923 46.5802 76.6622C47.4219 77.1167 48.3496 77.4291 49.3634 77.5994C50.3744 77.7543 51.38 77.7436 52.3802 77.5672C52.6879 77.513 52.9993 77.4343 53.3143 77.3311C53.6266 77.2126 53.9013 77.061 54.1385 76.8764C54.3757 76.6918 54.5599 76.4769 54.6912 76.2316C54.8197 75.9709 54.8542 75.6713 54.7945 75.3328C54.6805 74.6865 54.3371 74.0886 53.7642 73.5391C53.2067 72.9869 52.5044 72.4682 51.6573 71.9829C50.8074 71.4823 49.8512 71.0083 48.7887 70.561C47.7234 70.0983 46.6441 69.6461 45.5508 69.2042C44.4574 68.7624 43.3795 68.3178 42.3169 67.8705C41.2516 67.4078 40.2954 66.9339 39.4483 66.4486C38.5984 65.9479 37.8871 65.4229 37.3142 64.8734C36.754 64.3058 36.4169 63.6988 36.303 63.0526C36.1944 62.4371 36.2479 61.8406 36.4634 61.2631C36.6916 60.6676 37.0293 60.1083 37.4765 59.5852C37.9237 59.0621 38.4637 58.5702 39.0964 58.1096C39.7292 57.649 40.4022 57.2368 41.1155 56.873C41.8288 56.5092 42.553 56.207 43.288 55.9664C44.0356 55.7076 44.7557 55.5172 45.4481 55.3951C45.9559 55.3055 46.5126 55.2232 47.1181 55.1482C47.7364 55.0551 48.3179 55.0239 48.8628 55.0548C49.4203 55.0675 49.8964 55.1581 50.2911 55.3265C50.6857 55.4949 50.921 55.7945 50.9969 56.2254C51.0213 56.3639 51.0295 56.5449 51.0213 56.7685C51.0104 56.9767 50.9393 57.3382 50.808 57.8532C50.6712 58.3375 50.477 58.7208 50.2254 59.0031C49.9864 59.2674 49.6438 59.4389 49.1975 59.5176C48.5666 59.6288 47.8851 59.6776 47.1528 59.6639C46.4332 59.6321 45.7195 59.6786 45.0117 59.8034C44.627 59.8713 44.2387 59.9635 43.8468 60.0803C43.4675 60.1789 43.1258 60.3105 42.8216 60.4752C42.5148 60.6245 42.279 60.8168 42.1142 61.0521C41.9467 61.2721 41.8888 61.5282 41.9403 61.8206C41.9919 62.1129 42.2579 62.4071 42.7385 62.7032C43.2345 62.9965 43.868 63.3052 44.6392 63.6294C45.4257 63.9508 46.3127 64.3021 47.3001 64.6833C48.2848 65.0491 49.2931 65.4584 50.3249 65.9111C51.3693 66.3457 52.3989 66.8306 53.4134 67.3656C54.4253 67.8853 55.3453 68.4688 56.1734 69.1161C57.0142 69.7453 57.7169 70.4464 58.2816 71.2195C58.8617 71.9898 59.2318 72.8289 59.3919 73.7368C59.5872 74.8447 59.5056 75.8666 59.147 76.8024C58.7885 77.7383 58.2593 78.5614 57.5595 79.2719C56.8598 79.9823 56.0496 80.5615 55.129 81.0094C54.2112 81.4727 53.2906 81.7857 52.3673 81.9485C51.4287 82.114 50.4543 82.1668 49.4442 82.107C48.4522 82.0598 47.4733 81.9071 46.5076 81.649C45.5445 81.4063 44.6204 81.0695 43.7353 80.6385C42.8628 80.1894 42.0795 79.6612 41.3853 79.0537C40.6885 78.4309 40.0975 77.7339 39.6125 76.9626C39.1428 76.1887 38.8279 75.3478 38.6679 74.4399C38.6 74.0552 38.5553 73.6665 38.5336 73.2736C38.5246 72.8627 38.5636 72.4988 38.6505 72.1821C38.7347 71.8499 38.8837 71.5698 39.0973 71.3417C39.3082 71.0982 39.6061 70.9426 39.9907 70.8748C40.1138 70.8531 40.255 70.844 40.4144 70.8477C40.5709 70.8359 40.8524 70.8577 41.2588 70.913C41.7295 70.9728 42.1612 71.1267 42.554 71.3748C42.9595 71.6047 43.2043 71.9582 43.2884 72.4352ZM61.217 71.1303C61.1708 70.8687 61.1501 70.5709 61.1546 70.2369C61.1592 69.9029 61.1276 69.5436 61.0597 69.1589C61.0136 68.8973 60.8629 68.7176 60.6077 68.6198C60.3679 68.5193 60.0945 68.4088 59.7877 68.2884C59.4809 68.168 59.189 67.9973 58.9121 67.7764C58.6505 67.5528 58.4763 67.1948 58.3895 66.7024C58.3271 66.3485 58.357 65.9783 58.4793 65.5918C58.6169 65.2026 58.8446 64.8293 59.1623 64.4718C59.9508 63.6347 60.7823 62.8614 61.6567 62.1519C62.5466 61.4397 63.4437 60.8134 64.348 60.2732C65.2677 59.7302 66.1869 59.2746 67.1056 58.9064C68.0244 58.5381 68.9223 58.2767 69.7994 58.122C71.2766 57.8615 72.7104 57.8943 74.1006 58.2204C75.5035 58.5283 76.7661 59.0752 77.8883 59.861C79.0233 60.6287 79.9803 61.6023 80.7595 62.7818C81.5513 63.9432 82.0747 65.2471 82.3298 66.6935C82.5794 68.1092 82.5168 69.5085 82.1418 70.8915C81.7796 72.2564 81.1825 73.504 80.3505 74.6344C79.5185 75.7648 78.4743 76.7264 77.2179 77.5191C75.9796 78.3245 74.6141 78.8588 73.1215 79.122C71.6597 79.3797 70.2622 79.3723 68.9289 79.0997C67.5957 78.827 66.3992 78.3399 65.3394 77.6383C64.2769 76.9213 63.3872 76.0151 62.6705 74.9198C61.9511 73.8091 61.4666 72.5459 61.217 71.1303ZM72.8967 74.8778C73.543 74.7638 74.1893 74.515 74.8356 74.1313C75.4819 73.7476 76.0463 73.2594 76.5289 72.6666C77.0241 72.0557 77.3925 71.3561 77.6343 70.5677C77.8915 69.7767 77.94 68.9272 77.7799 68.0194C77.6172 67.0961 77.2959 66.2643 76.8163 65.5238C76.3367 64.7833 75.7453 64.1736 75.0421 63.6947C74.3515 63.1977 73.5686 62.8518 72.6934 62.6571C71.8336 62.4597 70.9343 62.4437 69.9957 62.6092C68.2876 62.9104 67.0584 63.5873 66.3079 64.6398C65.5547 65.677 65.3395 67.1111 65.6624 68.9423C65.8387 69.9425 66.1491 70.8476 66.5934 71.6578C67.0504 72.4499 67.6037 73.1138 68.2536 73.6498C68.9007 74.1703 69.617 74.5438 70.4026 74.7702C71.2036 74.9939 72.035 75.0297 72.8967 74.8778ZM96.2926 55.0451C95.7233 55.1455 95.2503 55.3875 94.8737 55.7712C94.4944 56.1396 94.1984 56.6202 93.9856 57.213C93.7701 57.7904 93.6261 58.4584 93.5536 59.2169C93.4783 59.96 93.4538 60.7656 93.4799 61.6336C93.506 62.5016 93.5774 63.4013 93.694 64.3327C93.8107 65.2641 93.9517 66.1991 94.1173 67.1378C94.3343 68.3688 94.5948 69.5763 94.8988 70.7602C95.2154 71.9261 95.4633 73.0168 95.6423 74.0324C95.759 74.6941 95.6037 75.253 95.1764 75.7091C94.7518 76.1806 94.0856 76.4964 93.1778 76.6565C93.0085 76.6863 92.8134 76.7048 92.5926 76.7121C92.3717 76.7193 92.1531 76.6943 91.9368 76.6373C91.7359 76.5775 91.5436 76.4766 91.3598 76.3344C91.1942 76.205 91.0793 76.0031 91.0151 75.7289C90.6378 74.3992 90.1936 73.0496 89.6824 71.68C89.1712 70.3105 88.5921 68.9609 87.9451 67.6311C87.3108 66.2833 86.5945 64.9658 85.7964 63.6786C85.0136 62.3886 84.1517 61.1444 83.2105 59.9459C83.0467 59.7368 82.901 59.5404 82.7734 59.3566C82.6612 59.1701 82.5888 58.9846 82.5563 58.7999C82.5156 58.5691 82.5722 58.3053 82.7261 58.0084C82.8927 57.6934 83.1095 57.3934 83.3765 57.1083C83.659 56.8205 83.9726 56.5748 84.3175 56.3712C84.6751 56.1495 85.0308 56.0075 85.3847 55.9451C85.9695 55.842 86.5569 56.1588 87.1469 56.8957C87.7342 57.6172 88.3763 58.8288 89.073 60.5305C89.2042 60.8247 89.3037 61.0293 89.3716 61.1442C89.4394 61.2592 89.5118 61.3099 89.5888 61.2963C89.758 61.2665 89.8196 60.9859 89.7735 60.4546C89.7004 58.9602 89.7948 57.6505 90.0565 56.5255C90.3155 55.385 90.7162 54.4179 91.2585 53.6242C91.8134 52.8124 92.4933 52.1689 93.298 51.6939C94.1181 51.2161 95.0513 50.8849 96.0977 50.7004C96.6978 50.5946 97.3151 50.5413 97.9496 50.5405C98.5841 50.5396 99.1666 50.6035 99.697 50.7321C100.227 50.8607 100.674 51.0518 101.036 51.3053C101.398 51.5588 101.613 51.8779 101.68 52.2625C101.729 52.5395 101.726 52.8812 101.671 53.2876C101.628 53.6759 101.546 54.0633 101.423 54.4498C101.298 54.8208 101.135 55.1512 100.932 55.4408C100.742 55.7123 100.524 55.8698 100.277 55.9132C100 55.962 99.7175 55.9326 99.4288 55.8248C99.1373 55.7017 98.8215 55.5749 98.4812 55.4445C98.1562 55.3114 97.8109 55.1978 97.4453 55.1036C97.0923 54.9913 96.7081 54.9718 96.2926 55.0451ZM113.05 52.0903C112.48 52.1907 112.007 52.4328 111.631 52.8165C111.252 53.1848 110.955 53.6654 110.743 54.2583C110.527 54.8357 110.383 55.5037 110.311 56.2622C110.235 57.0053 110.211 57.8108 110.237 58.6789C110.263 59.5469 110.335 60.4466 110.451 61.378C110.568 62.3094 110.709 63.2444 110.874 64.1831C111.091 65.4141 111.352 66.6215 111.656 67.8055C111.973 68.9714 112.22 70.0621 112.399 71.0777C112.516 71.7393 112.361 72.2982 111.934 72.7543C111.509 73.2259 110.843 73.5417 109.935 73.7017C109.766 73.7316 109.571 73.7501 109.35 73.7573C109.129 73.7645 108.91 73.7396 108.694 73.6826C108.493 73.6228 108.301 73.5218 108.117 73.3797C107.951 73.2503 107.836 73.0484 107.772 72.7741C107.395 71.4444 106.951 70.0948 106.439 68.7253C105.928 67.3558 105.349 66.0061 104.702 64.6764C104.068 63.3286 103.352 62.011 102.554 60.7238C101.771 59.4339 100.909 58.1897 99.9676 56.9912C99.8038 56.7821 99.6581 56.5856 99.5305 56.4019C99.4183 56.2154 99.3459 56.0298 99.3134 55.8452C99.2727 55.6144 99.3293 55.3505 99.4832 55.0537C99.6498 54.7387 99.8666 54.4387 100.134 54.1536C100.416 53.8658 100.73 53.6201 101.075 53.4165C101.432 53.1948 101.788 53.0527 102.142 52.9903C102.727 52.8872 103.314 53.2041 103.904 53.941C104.491 54.6624 105.133 55.874 105.83 57.5758C105.961 57.87 106.061 58.0746 106.129 58.1895C106.197 58.3045 106.269 58.3552 106.346 58.3416C106.515 58.3118 106.577 58.0312 106.531 57.4999C106.458 56.0055 106.552 54.6958 106.814 53.5707C107.073 52.4303 107.473 51.4632 108.016 50.6695C108.571 49.8577 109.25 49.2142 110.055 48.7391C110.875 48.2613 111.808 47.9302 112.855 47.7457C113.455 47.6399 114.072 47.5865 114.707 47.5857C115.341 47.5849 115.924 47.6488 116.454 47.7774C116.984 47.906 117.431 48.0971 117.793 48.3505C118.155 48.604 118.37 48.9231 118.437 49.3078C118.486 49.5848 118.483 49.9265 118.428 50.3329C118.385 50.7212 118.303 51.1085 118.181 51.495C118.056 51.8661 117.892 52.1965 117.689 52.4861C117.499 52.7576 117.281 52.9151 117.034 52.9585C116.757 53.0073 116.475 52.9778 116.186 52.8701C115.894 52.747 115.579 52.6202 115.238 52.4898C114.913 52.3567 114.568 52.2431 114.202 52.1489C113.849 52.0366 113.465 52.0171 113.05 52.0903ZM130.076 67.5325C129.153 67.6952 128.19 67.6349 127.188 67.3515C126.183 67.0526 125.189 66.5855 124.204 65.9499C123.219 65.3144 122.272 64.5295 121.361 63.5953C120.448 62.6457 119.614 61.6028 118.858 60.4668C118.1 59.3154 117.447 58.0897 116.901 56.7899C116.354 55.49 115.962 54.163 115.723 52.8089C115.538 51.7626 115.622 50.9783 115.974 50.4561C116.324 49.9185 116.983 49.5642 117.953 49.3933C119.168 49.1789 119.934 49.5596 120.248 50.5354C120.9 52.6101 121.622 54.458 122.416 56.0792C123.21 57.7004 124.043 59.0528 124.916 60.1364C125.805 61.2172 126.714 62.0089 127.644 62.5113C128.588 63.0111 129.522 63.1796 130.446 63.0168C131.107 62.9001 131.702 62.6287 132.23 62.2024C132.755 61.7608 133.18 61.2019 133.505 60.5258C133.618 60.2679 133.679 60.0271 133.687 59.8036C133.711 59.5773 133.713 59.323 133.695 59.0406C133.58 57.9345 133.476 56.8501 133.383 55.7875C133.304 54.7067 133.217 53.6273 133.122 52.5493C133.071 52.0823 133.066 51.6944 133.107 51.3858C133.148 51.0771 133.246 50.8219 133.4 50.6201C133.555 50.4182 133.773 50.2608 134.055 50.1477C134.352 50.0319 134.731 49.9333 135.193 49.8519C135.716 49.7596 136.176 49.7579 136.572 49.8466C136.966 49.92 137.308 50.1056 137.598 50.4034C137.886 50.6859 138.124 51.0882 138.311 51.6105C138.511 52.1147 138.68 52.7592 138.819 53.5439C138.938 54.221 138.989 54.8229 138.97 55.3497C138.965 55.8584 138.932 56.3481 138.872 56.8187C138.825 57.2713 138.778 57.7238 138.731 58.1764C138.697 58.6109 138.709 59.0847 138.768 59.5979C138.916 60.8887 139.042 62.0088 139.146 62.9583C139.247 63.8924 139.333 64.6943 139.404 65.3641C139.489 66.0312 139.559 66.606 139.612 67.0885C139.681 67.5682 139.74 67.9941 139.79 68.3661C139.842 68.7535 139.899 69.1164 139.958 69.455C140.018 69.7935 140.083 70.1628 140.154 70.5629C140.281 71.2861 140.45 72.0654 140.661 72.9009C140.875 73.7518 141.081 74.5641 141.281 75.3381C141.496 76.1093 141.688 76.7895 141.855 77.3788C142.023 77.968 142.127 78.3781 142.167 78.6089C142.219 78.9012 142.175 79.1945 142.037 79.4886C141.898 79.7828 141.693 80.057 141.42 80.3113C141.148 80.5656 140.813 80.7833 140.417 80.9642C140.023 81.1606 139.595 81.2995 139.134 81.3809C138.734 81.4514 138.386 81.3699 138.091 81.1363C137.814 80.9155 137.621 80.5846 137.512 80.1438C137.362 79.5672 137.198 78.8585 137.018 78.0176C136.84 77.1921 136.652 76.305 136.453 75.3564C136.257 74.4232 136.064 73.4655 135.875 72.4834C135.704 71.514 135.537 70.6075 135.372 69.7639C135.21 68.9357 135.073 68.2061 134.962 67.5752C134.851 66.9443 134.771 66.4904 134.722 66.2134C134.673 65.9364 134.609 65.7495 134.528 65.6527C134.445 65.5404 134.318 65.4992 134.149 65.5291C134.057 65.5453 133.939 65.5978 133.796 65.6865C133.65 65.7598 133.488 65.8756 133.31 66.034C132.828 66.4521 132.323 66.7792 131.793 67.0154C131.264 67.2516 130.691 67.4239 130.076 67.5325ZM152.647 60.0302C152.677 60.1995 152.632 60.6199 152.513 61.2915C152.393 61.9631 152.216 62.756 151.98 63.6701C151.76 64.5816 151.487 65.55 151.16 66.5755C150.833 67.601 150.485 68.5509 150.115 69.4252C149.746 70.2995 149.36 71.0339 148.957 71.6285C148.572 72.2358 148.187 72.5734 147.803 72.6412C147.618 72.6738 147.378 72.6606 147.082 72.6017C146.786 72.5429 146.492 72.4519 146.201 72.3287C145.927 72.2183 145.681 72.0793 145.461 71.9118C145.243 71.7597 145.119 71.5913 145.086 71.4067C145.059 71.2528 145.145 70.841 145.344 70.1712C145.561 69.5141 145.815 68.6602 146.106 67.6094C146.4 66.5739 146.698 65.3869 147.001 64.0482C147.305 62.7096 147.53 61.2895 147.678 59.7879C147.716 59.4638 147.805 59.2023 147.944 59.0032C148.081 58.7887 148.296 58.6556 148.588 58.6041C148.865 58.5553 149.222 58.5558 149.659 58.6056C150.094 58.6401 150.521 58.7234 150.941 58.8556C151.373 58.9697 151.75 59.1254 152.07 59.3228C152.406 59.5174 152.598 59.7533 152.647 60.0302ZM47.3467 120.151C47.306 119.92 47.3667 119.679 47.5287 119.428C47.6881 119.162 47.9144 118.916 48.2077 118.69C48.4982 118.448 48.8341 118.238 49.2152 118.06C49.6089 117.864 50.0135 117.729 50.429 117.656C50.6598 117.615 50.863 117.643 51.0386 117.739C51.2296 117.832 51.4178 118.045 51.6033 118.377C51.7861 118.694 51.9793 119.159 52.1829 119.774C52.3991 120.37 52.6416 121.161 52.9102 122.145C53.0261 122.442 53.122 122.671 53.198 122.832C53.2867 122.975 53.3772 123.038 53.4695 123.022C53.608 122.997 53.7044 122.734 53.7588 122.233C54.3096 118.788 55.6467 116.878 57.7702 116.504C58.755 116.33 59.7018 116.481 60.6105 116.955C61.5345 117.427 62.4663 118.302 63.4056 119.58C64.3576 120.84 65.3499 122.553 66.3823 124.719C67.4121 126.87 68.5354 129.552 69.7524 132.764C69.813 132.928 69.8632 133.078 69.903 133.214C69.9428 133.349 69.9736 133.479 69.9953 133.602C70.0577 133.956 70.0273 134.278 69.9042 134.57C69.7937 134.843 69.6226 135.088 69.3909 135.303C69.1564 135.503 68.8844 135.67 68.5748 135.804C68.268 135.953 67.953 136.056 67.6298 136.113C66.9835 136.227 66.502 136.241 66.1852 136.154C65.8838 136.064 65.6607 135.834 65.516 135.463C64.6573 133.202 63.8525 131.202 63.1015 129.463C62.3658 127.72 61.6818 126.27 61.0492 125.112C60.4294 123.936 59.8624 123.061 59.3484 122.485C58.8344 121.909 58.3773 121.657 57.9772 121.727C57.5772 121.798 57.2449 122.118 56.9806 122.688C56.7288 123.24 56.535 124.076 56.3991 125.194C56.2632 126.313 56.1851 127.715 56.165 129.401C56.1602 131.083 56.2188 133.08 56.3407 135.391C56.3723 136.02 56.1513 136.567 55.6779 137.031C55.2044 137.495 54.5522 137.8 53.7213 137.947C53.1674 138.045 52.7238 138.004 52.3908 137.825C52.0577 137.645 51.8405 137.358 51.7392 136.964C51.0364 133.788 50.4185 131.183 49.8857 129.151C49.3655 127.101 48.9263 125.465 48.568 124.243C48.2071 123.006 47.9261 122.087 47.7253 121.488C47.5244 120.889 47.3982 120.443 47.3467 120.151ZM71.6689 127.167C71.6227 126.905 71.602 126.607 71.6065 126.273C71.6111 125.939 71.5795 125.58 71.5116 125.195C71.4655 124.934 71.3148 124.754 71.0596 124.656C70.8198 124.556 70.5464 124.445 70.2396 124.325C69.9328 124.204 69.6409 124.034 69.364 123.813C69.1024 123.589 68.9282 123.231 68.8414 122.739C68.779 122.385 68.8089 122.015 68.9312 121.628C69.0688 121.239 69.2965 120.866 69.6142 120.508C70.4027 119.671 71.2342 118.898 72.1086 118.188C72.9985 117.476 73.8956 116.85 74.7999 116.31C75.7196 115.767 76.6388 115.311 77.5575 114.943C78.4763 114.574 79.3742 114.313 80.2513 114.158C81.7285 113.898 83.1623 113.931 84.5525 114.257C85.9554 114.565 87.218 115.112 88.3402 115.897C89.4752 116.665 90.4322 117.639 91.2114 118.818C92.0032 119.98 92.5266 121.283 92.7817 122.73C93.0313 124.146 92.9687 125.545 92.5937 126.928C92.2315 128.293 91.6344 129.54 90.8024 130.671C89.9704 131.801 88.9262 132.763 87.6698 133.555C86.4315 134.361 85.066 134.895 83.5734 135.158C82.1116 135.416 80.7141 135.409 79.3808 135.136C78.0476 134.863 76.8511 134.376 75.7913 133.675C74.7288 132.958 73.8391 132.051 73.1224 130.956C72.403 129.845 71.9185 128.582 71.6689 127.167ZM83.3486 130.914C83.9949 130.8 84.6412 130.551 85.2875 130.168C85.9338 129.784 86.4982 129.296 86.9808 128.703C87.476 128.092 87.8444 127.392 88.0862 126.604C88.3434 125.813 88.3919 124.964 88.2319 124.056C88.0691 123.132 87.7478 122.301 87.2682 121.56C86.7886 120.82 86.1972 120.21 85.494 119.731C84.8034 119.234 84.0205 118.888 83.1453 118.693C82.2855 118.496 81.3862 118.48 80.4476 118.646C78.7395 118.947 77.5103 119.624 76.7598 120.676C76.0066 121.713 75.7914 123.148 76.1143 124.979C76.2906 125.979 76.601 126.884 77.0453 127.694C77.5023 128.486 78.0556 129.15 78.7055 129.686C79.3526 130.207 80.0689 130.58 80.8545 130.807C81.6555 131.03 82.4869 131.066 83.3486 130.914ZM107.807 104.421C107.361 104.499 106.927 104.512 106.505 104.46C106.096 104.389 105.725 104.264 105.392 104.085C105.071 103.888 104.798 103.642 104.572 103.349C104.346 103.056 104.199 102.717 104.131 102.332C104.017 101.686 104.178 101.118 104.616 100.628C105.068 100.136 105.726 99.8138 106.587 99.6618C106.987 99.5913 107.386 99.6004 107.782 99.6891C108.176 99.7625 108.533 99.8979 108.853 100.095C109.189 100.29 109.471 100.542 109.7 100.85C109.927 101.144 110.071 101.467 110.133 101.821C110.25 102.483 110.096 103.049 109.671 103.521C109.26 103.974 108.638 104.274 107.807 104.421ZM105.886 112.018C105.791 111.48 105.945 111 106.347 110.58C106.761 110.142 107.353 109.856 108.123 109.72C109.508 109.476 110.33 109.822 110.591 110.76C110.769 111.411 110.962 112.146 111.17 112.967C111.394 113.784 111.619 114.656 111.846 115.584C112.086 116.494 112.317 117.445 112.539 118.437C112.775 119.411 113.001 120.378 113.218 121.34C113.432 122.286 113.634 123.202 113.822 124.089C114.01 124.976 114.169 125.789 114.299 126.528C114.435 127.297 114.26 127.923 113.774 128.405C113.303 128.885 112.544 129.217 111.498 129.402C111.021 129.486 110.624 129.437 110.306 129.255C110.006 129.085 109.819 128.785 109.743 128.354C109.368 126.231 108.964 124.255 108.531 122.428C108.11 120.582 107.711 118.947 107.333 117.522C106.97 116.095 106.651 114.914 106.375 113.979C106.112 113.026 105.949 112.372 105.886 112.018ZM120.974 127.398C120.505 125.37 119.996 123.516 119.446 121.836C118.908 120.138 118.395 118.666 117.905 117.419C117.431 116.17 117.024 115.163 116.682 114.398C116.357 113.631 116.176 113.147 116.141 112.947C116.089 112.654 116.147 112.351 116.313 112.036C116.495 111.718 116.738 111.429 117.041 111.17C117.342 110.895 117.674 110.662 118.037 110.471C118.415 110.277 118.766 110.152 119.089 110.095C119.35 110.049 119.582 110.055 119.783 110.115C119.999 110.172 120.165 110.302 120.279 110.504C120.403 110.752 120.521 111.016 120.634 111.298C120.76 111.561 120.896 111.886 121.044 112.273C121.236 112.826 121.41 113.089 121.564 113.062C121.733 113.032 121.88 112.744 122.006 112.198C122.189 111.436 122.417 110.793 122.689 110.269C122.962 109.745 123.275 109.317 123.629 108.985C123.996 108.635 124.385 108.368 124.797 108.184C125.224 107.998 125.676 107.862 126.153 107.778C127.6 107.523 128.923 107.877 130.124 108.839C131.341 109.799 132.424 111.305 133.373 113.359C133.493 113.592 133.591 113.741 133.666 113.807C133.738 113.858 133.813 113.877 133.89 113.863C133.967 113.849 134.038 113.805 134.104 113.73C134.183 113.637 134.242 113.476 134.281 113.247C134.474 112.181 134.756 111.259 135.126 110.48C135.494 109.685 135.901 109.026 136.348 108.503C136.808 107.962 137.297 107.543 137.816 107.245C138.335 106.947 138.848 106.753 139.356 106.664C140.294 106.498 141.202 106.695 142.078 107.255C142.967 107.796 143.829 108.731 144.667 110.059C145.516 111.369 146.349 113.078 147.165 115.187C147.994 117.278 148.818 119.791 149.637 122.724C149.783 123.555 149.631 124.177 149.18 124.59C148.732 125.018 148.069 125.309 147.192 125.464C146.623 125.564 146.155 125.52 145.789 125.33C145.422 125.141 145.18 124.851 145.064 124.459C144.486 122.355 143.928 120.494 143.389 118.876C142.862 117.239 142.36 115.876 141.883 114.786C141.402 113.681 140.94 112.858 140.495 112.318C140.066 111.774 139.652 111.538 139.252 111.609C139.052 111.644 138.824 111.835 138.567 112.182C138.327 112.525 138.106 113.12 137.906 113.964C137.703 114.793 137.536 115.917 137.406 117.337C137.273 118.74 137.221 120.519 137.252 122.671C137.263 123.272 137.057 123.768 136.634 124.16C136.226 124.549 135.684 124.804 135.007 124.923C134.222 125.061 133.654 125.035 133.303 124.843C132.967 124.648 132.733 124.261 132.599 123.682C132.358 122.677 132.073 121.688 131.742 120.715C131.425 119.724 131.078 118.793 130.703 117.923C130.325 117.038 129.937 116.234 129.54 115.511C129.14 114.772 128.743 114.144 128.351 113.626C127.955 113.093 127.575 112.692 127.21 112.423C126.846 112.154 126.517 112.045 126.225 112.097C125.84 112.165 125.51 112.501 125.236 113.104C124.977 113.705 124.788 114.524 124.67 115.56C124.566 116.594 124.552 117.818 124.627 119.233C124.702 120.648 124.89 122.209 125.191 123.917C125.243 124.209 125.302 124.5 125.369 124.79C125.433 125.064 125.492 125.355 125.547 125.663C125.628 126.125 125.618 126.515 125.515 126.835C125.428 127.151 125.261 127.419 125.014 127.637C124.782 127.852 124.495 128.022 124.152 128.146C123.809 128.27 123.43 128.369 123.014 128.442C122.629 128.51 122.316 128.533 122.075 128.512C121.836 128.507 121.645 128.461 121.503 128.375C121.361 128.289 121.25 128.158 121.172 127.981C121.096 127.82 121.03 127.626 120.974 127.398ZM163.243 98.1206C164.089 97.9713 164.928 97.9583 165.759 98.0815C166.59 98.2048 167.346 98.4443 168.027 98.8001C168.709 99.1559 169.283 99.6257 169.751 100.21C170.235 100.791 170.545 101.474 170.684 102.259C170.741 102.582 170.719 102.911 170.62 103.246C170.533 103.562 170.387 103.858 170.181 104.132C169.973 104.391 169.72 104.618 169.421 104.814C169.135 104.991 168.822 105.109 168.484 105.169C168.453 105.175 168.424 105.188 168.396 105.208C168.38 105.211 168.357 105.215 168.326 105.221C168.298 105.241 168.269 105.255 168.238 105.26L168.656 107.09C169.106 109.28 169.697 110.834 170.43 111.752C171.178 112.667 172.007 113.044 172.914 112.884C173.238 112.827 173.517 112.746 173.752 112.641C174.003 112.534 174.229 112.422 174.431 112.307C174.646 112.174 174.847 112.059 175.037 111.963C175.226 111.866 175.42 111.8 175.62 111.764C175.974 111.702 176.309 111.802 176.625 112.063C176.956 112.322 177.16 112.667 177.236 113.098C177.312 113.529 177.219 113.989 176.956 114.48C176.709 114.968 176.347 115.436 175.871 115.885C175.392 116.319 174.833 116.703 174.194 117.038C173.555 117.372 172.889 117.601 172.197 117.723C170.997 117.935 169.856 117.628 168.774 116.803C167.69 115.963 166.786 114.615 166.062 112.76C165.916 112.468 165.765 112.336 165.611 112.363C165.427 112.396 165.281 112.517 165.176 112.726C163.991 114.918 162.623 116.65 161.07 117.924C159.515 119.182 157.899 119.958 156.222 120.254C155.437 120.393 154.709 120.402 154.037 120.282C153.366 120.163 152.77 119.935 152.251 119.598C151.744 119.243 151.314 118.787 150.962 118.23C150.623 117.656 150.387 116.991 150.254 116.237C150.067 115.175 150.101 114.019 150.356 112.768C150.627 111.515 151.062 110.248 151.662 108.968C152.261 107.689 152.993 106.441 153.857 105.225C154.737 104.007 155.685 102.904 156.701 101.916C157.732 100.925 158.807 100.093 159.926 99.4194C161.045 98.7462 162.15 98.3132 163.243 98.1206ZM163.889 106.241C164.074 105.669 164.261 105.247 164.452 104.976C164.639 104.689 164.941 104.469 165.359 104.316C165.689 104.21 165.839 104.073 165.809 103.903C165.788 103.78 165.719 103.658 165.602 103.535C165.239 103.187 164.87 102.895 164.495 102.66C164.118 102.409 163.66 102.331 163.121 102.426C162.537 102.529 161.913 102.813 161.249 103.28C160.585 103.746 159.927 104.33 159.273 105.032C158.632 105.716 158.014 106.484 157.418 107.334C156.835 108.167 156.333 109.009 155.912 109.861C155.491 110.713 155.177 111.538 154.968 112.336C154.76 113.134 154.708 113.826 154.811 114.41C154.903 114.934 155.113 115.317 155.442 115.56C155.786 115.801 156.204 115.878 156.696 115.791C157.958 115.569 159.217 114.657 160.474 113.055C161.73 111.453 162.869 109.182 163.889 106.241ZM187.607 96.0616C188.346 95.9314 189.057 95.8695 189.74 95.8759C190.421 95.867 191.042 95.8842 191.605 95.9278C192.166 95.9559 192.649 95.9976 193.055 96.0529C193.459 96.0928 193.746 96.0978 193.915 96.0679C194.053 96.0435 194.172 95.9512 194.271 95.791C194.367 95.6154 194.492 95.4267 194.647 95.2249C194.802 95.0231 195.021 94.8258 195.304 94.633C195.585 94.4249 195.979 94.2761 196.487 94.1865C197.071 94.0834 197.56 94.1559 197.953 94.404C198.343 94.6366 198.577 94.9761 198.656 95.4223C199.649 101.054 200.301 105.874 200.61 109.881C200.918 113.872 200.857 117.175 200.43 119.789C200.002 122.403 199.201 124.385 198.027 125.734C196.853 127.084 195.289 127.931 193.335 128.275C192.442 128.433 191.476 128.397 190.436 128.167C189.411 127.936 188.443 127.575 187.532 127.085C186.623 126.611 185.841 126.043 185.185 125.381C184.544 124.716 184.163 124.038 184.041 123.345C184 123.115 184.076 122.824 184.267 122.472C184.459 122.121 184.707 121.768 185.009 121.414C185.311 121.059 185.637 120.747 185.987 120.48C186.336 120.212 186.649 120.053 186.926 120.005C187.219 119.953 187.485 120.025 187.726 120.221C187.969 120.431 188.207 120.699 188.439 121.023C188.686 121.344 188.938 121.697 189.196 122.079C189.457 122.478 189.757 122.829 190.096 123.134C190.435 123.44 190.825 123.672 191.266 123.832C191.71 124.008 192.232 124.043 192.832 123.937C196.186 123.346 197.252 117.874 196.03 107.523C195.949 107.061 195.777 106.854 195.515 106.9C195.3 106.938 195.15 107.075 195.065 107.313C193.963 109.522 192.529 111.29 190.764 112.616C189.012 113.925 186.958 114.787 184.604 115.202C183.511 115.395 182.475 115.411 181.495 115.25C180.512 115.075 179.63 114.754 178.85 114.289C178.083 113.805 177.442 113.188 176.929 112.438C176.413 111.672 176.069 110.797 175.895 109.812C175.724 108.843 175.725 107.859 175.898 106.86C176.084 105.844 176.411 104.866 176.88 103.927C177.362 102.969 177.971 102.06 178.708 101.201C179.445 100.341 180.276 99.5675 181.202 98.8807C182.126 98.1784 183.125 97.5898 184.199 97.1147C185.286 96.6216 186.422 96.2705 187.607 96.0616ZM184.571 110.829C186.679 110.457 188.493 109.455 190.014 107.822C191.532 106.174 192.69 103.971 193.489 101.212C193.504 101.114 193.515 101.041 193.522 100.992C193.526 100.928 193.523 100.865 193.512 100.804C193.485 100.65 193.295 100.517 192.942 100.404C192.589 100.292 192.14 100.22 191.595 100.19C191.05 100.159 190.433 100.165 189.742 100.207C189.064 100.231 188.387 100.303 187.71 100.423C186.617 100.615 185.596 100.986 184.645 101.534C183.695 102.082 182.881 102.734 182.205 103.487C181.529 104.241 181.021 105.053 180.683 105.922C180.344 106.79 180.249 107.648 180.399 108.494C180.559 109.402 181.017 110.067 181.774 110.489C182.546 110.908 183.478 111.022 184.571 110.829ZM224.235 102.954C224.614 102.491 225.018 102.221 225.449 102.145C225.695 102.102 225.929 102.124 226.151 102.212C226.373 102.3 226.63 102.453 226.922 102.671C227.216 102.984 227.429 103.248 227.562 103.463C227.707 103.659 227.799 103.865 227.837 104.08C227.919 104.542 227.765 105.021 227.377 105.518C226.747 106.264 226.044 106.959 225.269 107.603C224.492 108.232 223.663 108.799 222.784 109.303C221.906 109.807 220.981 110.232 220.011 110.577C219.043 110.938 218.067 111.206 217.082 111.379C215.835 111.599 214.638 111.644 213.488 111.513C212.341 111.398 211.285 111.124 210.321 110.691C209.371 110.256 208.532 109.682 207.804 108.969C207.072 108.242 206.493 107.384 206.065 106.396C205.85 105.99 205.671 105.736 205.526 105.635C205.394 105.515 205.197 105.478 204.935 105.524C204.366 105.625 203.903 105.564 203.546 105.341C203.19 105.118 202.965 104.745 202.873 104.222C202.835 104.007 202.826 103.866 202.846 103.799L202.811 103.329C202.79 102.761 202.866 102.335 203.038 102.051C203.225 101.764 203.557 101.579 204.034 101.495L204.381 101.434C205.027 101.32 205.428 100.94 205.584 100.293C205.874 99.1475 206.31 98.0709 206.894 97.0636C207.478 96.0562 208.178 95.1634 208.992 94.3851C209.804 93.5914 210.704 92.9331 211.69 92.4101C212.69 91.8689 213.736 91.502 214.828 91.3094C215.967 91.1086 217.058 91.0907 218.103 91.2555C219.16 91.4023 220.11 91.703 220.951 92.1575C221.793 92.6119 222.491 93.1949 223.045 93.9065C223.614 94.6153 223.978 95.4236 224.139 96.3315C224.25 96.9624 224.228 97.5611 224.074 98.1277C223.921 98.6943 223.648 99.2183 223.257 99.6998C222.863 100.166 222.357 100.58 221.739 100.943C221.136 101.303 220.426 101.595 219.609 101.819L211.742 104.039C211.434 104.093 211.194 104.215 211.021 104.404C210.863 104.59 210.807 104.814 210.854 105.076C210.924 105.476 211.138 105.835 211.496 106.153C211.869 106.468 212.327 106.728 212.871 106.934C213.428 107.121 214.044 107.242 214.72 107.298C215.412 107.35 216.104 107.315 216.796 107.193C217.458 107.077 218.124 106.896 218.795 106.651C219.478 106.387 220.137 106.073 220.77 105.707C221.419 105.339 222.037 104.929 222.624 104.476C223.207 104.008 223.745 103.501 224.235 102.954ZM218.038 97.9069C218.261 97.82 218.442 97.6771 218.581 97.4779C218.718 97.2634 218.763 97.0254 218.717 96.7638C218.677 96.533 218.554 96.3325 218.349 96.1623C218.145 95.9921 217.883 95.8558 217.563 95.7535C217.241 95.6358 216.88 95.5647 216.479 95.5402C216.078 95.5157 215.662 95.5415 215.231 95.6174C214.6 95.7287 213.97 95.935 213.341 96.2363C212.712 96.5376 212.155 96.8896 211.671 97.2923C211.184 97.6797 210.803 98.0878 210.53 98.5168C210.254 98.9304 210.147 99.3142 210.209 99.6681C210.272 100.022 210.519 100.161 210.949 100.085C211.211 100.039 211.629 99.9335 212.203 99.7688C212.776 99.6042 213.411 99.421 214.105 99.2192C214.796 99.0021 215.494 98.7759 216.198 98.5407C216.903 98.3055 217.516 98.0942 218.038 97.9069ZM69.8715 193.907C68.9482 194.07 67.9856 194.009 66.9837 193.726C65.979 193.427 64.9843 192.96 63.9997 192.324C63.015 191.689 62.0674 190.904 61.157 189.97C60.2438 189.02 59.4094 187.977 58.6538 186.841C57.8955 185.69 57.243 184.464 56.6965 183.164C56.15 181.864 55.7574 180.537 55.5186 179.183C55.3341 178.137 55.4179 177.353 55.7701 176.83C56.1195 176.293 56.779 175.938 57.7484 175.768C58.964 175.553 59.7293 175.934 60.0441 176.91C60.6955 178.984 61.418 180.832 62.2116 182.453C63.0052 184.075 63.8386 185.427 64.7119 186.511C65.6006 187.591 66.5097 188.383 67.4392 188.886C68.3841 189.385 69.3181 189.554 70.2414 189.391C70.9031 189.274 71.4978 189.003 72.0255 188.577C72.5506 188.135 72.9756 187.576 73.3006 186.9C73.4138 186.642 73.4745 186.401 73.4827 186.178C73.5062 185.952 73.509 185.697 73.4909 185.415C73.3752 184.309 73.2713 183.224 73.1791 182.162C73.0996 181.081 73.0124 180.002 72.9175 178.924C72.8669 178.457 72.862 178.069 72.9028 177.76C72.9435 177.451 73.0413 177.196 73.1961 176.994C73.3509 176.793 73.5691 176.635 73.8506 176.522C74.1475 176.406 74.5268 176.308 74.9884 176.226C75.5116 176.134 75.9714 176.132 76.3678 176.221C76.7615 176.294 77.1036 176.48 77.3942 176.778C77.6819 177.06 77.9195 177.463 78.1068 177.985C78.3067 178.489 78.4759 179.133 78.6143 179.918C78.7337 180.595 78.7843 181.197 78.7661 181.724C78.7606 182.233 78.7279 182.722 78.6681 183.193C78.621 183.646 78.5739 184.098 78.5267 184.551C78.4923 184.985 78.5044 185.459 78.5632 185.972C78.7115 187.263 78.8376 188.383 78.9415 189.333C79.0428 190.267 79.1287 191.069 79.1992 191.738C79.2851 192.406 79.3547 192.98 79.408 193.463C79.4767 193.942 79.536 194.368 79.5857 194.74C79.6381 195.128 79.6942 195.491 79.7539 195.829C79.8136 196.168 79.8787 196.537 79.9492 196.937C80.0768 197.66 80.2459 198.44 80.4567 199.275C80.6702 200.126 80.8769 200.938 81.0768 201.712C81.2921 202.484 81.4835 203.164 81.6509 203.753C81.8182 204.342 81.9223 204.752 81.9629 204.983C82.0145 205.276 81.971 205.569 81.8325 205.863C81.694 206.157 81.4885 206.431 81.216 206.686C80.9435 206.94 80.609 207.158 80.2125 207.339C79.8188 207.535 79.3911 207.674 78.9295 207.755C78.5294 207.826 78.1818 207.744 77.8868 207.511C77.6098 207.29 77.4166 206.959 77.3072 206.518C77.1579 205.941 76.9933 205.233 76.8133 204.392C76.636 203.566 76.4478 202.679 76.2489 201.731C76.0526 200.797 75.8599 199.84 75.6709 198.858C75.4999 197.888 75.3322 196.982 75.1675 196.138C75.0056 195.31 74.8691 194.58 74.7578 193.95C74.6466 193.319 74.5665 192.865 74.5177 192.588C74.4689 192.311 74.4042 192.124 74.3236 192.027C74.2404 191.915 74.1141 191.873 73.9449 191.903C73.8525 191.92 73.7348 191.972 73.5918 192.061C73.4461 192.134 73.2841 192.25 73.1057 192.408C72.6241 192.826 72.1186 193.154 71.589 193.39C71.0595 193.626 70.487 193.798 69.8715 193.907ZM102.154 182.36C102.532 181.897 102.937 181.627 103.368 181.551C103.614 181.508 103.848 181.53 104.07 181.618C104.291 181.705 104.548 181.858 104.841 182.077C105.134 182.39 105.347 182.654 105.48 182.868C105.626 183.065 105.718 183.271 105.756 183.486C105.837 183.948 105.683 184.427 105.295 184.924C104.665 185.669 103.963 186.364 103.188 187.009C102.41 187.638 101.582 188.204 100.703 188.708C99.8239 189.212 98.8992 189.637 97.9289 189.983C96.9612 190.344 95.985 190.611 95.0002 190.785C93.7538 191.005 92.5558 191.049 91.4063 190.919C90.2596 190.804 89.2038 190.53 88.2389 190.097C87.2895 189.661 86.4505 189.087 85.722 188.375C84.9908 187.647 84.4112 186.789 83.9832 185.802C83.7687 185.395 83.5891 185.142 83.4443 185.04C83.3121 184.921 83.1153 184.884 82.8537 184.93C82.2843 185.03 81.8214 184.969 81.4648 184.747C81.1082 184.524 80.8838 184.151 80.7915 183.628C80.7535 183.412 80.7445 183.271 80.7644 183.204L80.7292 182.734C80.7084 182.167 80.7841 181.741 80.9561 181.457C81.1435 181.17 81.4757 180.984 81.9527 180.9L82.2989 180.839C82.9452 180.725 83.3463 180.345 83.502 179.699C83.7918 178.553 84.2287 177.477 84.8127 176.469C85.3966 175.462 86.0959 174.569 86.9107 173.791C87.7227 172.997 88.622 172.339 89.6087 171.816C90.608 171.275 91.654 170.908 92.7465 170.715C93.8852 170.514 94.9768 170.496 96.0213 170.661C97.0784 170.808 98.0279 171.109 98.8696 171.563C99.7113 172.018 100.409 172.601 100.963 173.312C101.532 174.021 101.897 174.829 102.057 175.737C102.168 176.368 102.147 176.967 101.993 177.533C101.839 178.1 101.566 178.624 101.175 179.105C100.781 179.571 100.275 179.986 99.6572 180.349C99.0543 180.709 98.3442 181.001 97.5268 181.224L89.66 183.444C89.3523 183.499 89.1119 183.62 88.939 183.809C88.7815 183.996 88.7258 184.22 88.7719 184.482C88.8425 184.882 89.0565 185.241 89.414 185.558C89.7869 185.873 90.2453 186.134 90.7892 186.339C91.3459 186.527 91.9622 186.648 92.6384 186.703C93.3299 186.756 94.0219 186.721 94.7143 186.599C95.376 186.482 96.0422 186.301 96.7129 186.056C97.3963 185.793 98.0548 185.478 98.6885 185.113C99.3375 184.745 99.9553 184.334 100.542 183.882C101.126 183.414 101.663 182.907 102.154 182.36ZM95.9565 177.313C96.1792 177.226 96.3602 177.083 96.4997 176.884C96.6364 176.669 96.6817 176.431 96.6355 176.169C96.5948 175.939 96.4722 175.738 96.2677 175.568C96.0631 175.398 95.8011 175.261 95.4816 175.159C95.1594 175.041 94.7978 174.97 94.3969 174.946C93.9959 174.921 93.58 174.947 93.1491 175.023C92.5182 175.134 91.8882 175.341 91.2591 175.642C90.63 175.943 90.0733 176.295 89.589 176.698C89.102 177.085 88.7218 177.493 88.4484 177.922C88.1722 178.336 88.0654 178.72 88.1278 179.074C88.1902 179.428 88.4368 179.567 88.8677 179.491C89.1293 179.445 89.547 179.339 90.1209 179.174C90.6948 179.01 91.3288 178.827 92.0231 178.625C92.7146 178.408 93.4125 178.182 94.1168 177.946C94.821 177.711 95.4342 177.5 95.9565 177.313ZM105.269 159.535C105.125 158.719 105.255 158.109 105.66 157.705C106.062 157.285 106.794 156.981 107.856 156.794C108.24 156.726 108.57 156.708 108.845 156.738C109.133 156.751 109.386 156.834 109.603 156.986C109.835 157.135 110.033 157.354 110.195 157.643C110.369 157.913 110.536 158.273 110.694 158.721C111.131 160.119 111.592 161.561 112.076 163.047C112.575 164.529 113.084 166.018 113.601 167.514C113.816 168.19 114.238 168.472 114.869 168.361C115.038 168.331 115.313 168.267 115.692 168.168C116.084 168.052 116.545 167.923 117.075 167.782C117.603 167.625 118.169 167.462 118.774 167.292C119.394 167.119 120.008 166.955 120.615 166.801C121.235 166.628 121.819 166.477 122.368 166.349C122.929 166.202 123.425 166.091 123.856 166.015C124.195 165.955 124.476 165.977 124.701 166.08C124.922 166.168 125.106 166.31 125.252 166.507C125.41 166.685 125.528 166.902 125.605 167.158C125.694 167.396 125.762 167.646 125.808 167.908C125.849 168.139 125.845 168.385 125.796 168.648C125.762 168.908 125.686 169.151 125.568 169.378C125.462 169.587 125.312 169.772 125.118 169.933C124.924 170.094 124.689 170.199 124.412 170.248C123.073 170.484 121.727 170.769 120.374 171.103C119.034 171.419 117.699 171.765 116.369 172.143C115.693 172.357 115.408 172.764 115.513 173.364C115.521 173.41 115.54 173.471 115.569 173.545C115.595 173.604 115.612 173.656 115.621 173.702C116.041 175.009 116.432 176.233 116.792 177.375C117.167 178.515 117.49 179.537 117.761 180.441C118.044 181.327 118.271 182.073 118.441 182.677C118.623 183.264 118.732 183.657 118.768 183.857C118.865 184.411 118.893 184.882 118.85 185.27C118.81 185.674 118.688 186.013 118.482 186.287C118.279 186.577 117.978 186.805 117.579 186.97C117.198 187.148 116.7 187.292 116.084 187.4C115.5 187.503 115.044 187.441 114.719 187.213C114.393 186.985 114.164 186.589 114.033 186.025C113.621 184.225 113.153 182.428 112.63 180.632C112.104 178.82 111.549 177.022 110.965 175.237C110.71 174.6 110.305 174.33 109.751 174.428C109.705 174.436 109.652 174.453 109.594 174.48C109.535 174.506 109.482 174.523 109.436 174.531C108.52 174.915 107.658 175.289 106.85 175.654C106.041 176.018 105.289 176.389 104.594 176.765C104.203 176.977 103.852 177.142 103.539 177.261C103.224 177.364 102.936 177.438 102.674 177.485C102.32 177.547 102.032 177.439 101.808 177.161C101.582 176.868 101.427 176.483 101.343 176.006C101.313 175.837 101.294 175.641 101.287 175.421C101.277 175.184 101.299 174.95 101.354 174.719C101.39 174.474 101.476 174.245 101.613 174.03C101.732 173.803 101.919 173.604 102.174 173.432C102.774 173.056 103.588 172.635 104.617 172.168C105.642 171.686 106.81 171.202 108.121 170.717C108.415 170.586 108.632 170.421 108.771 170.222C108.924 170.004 108.968 169.719 108.906 169.365C108.892 169.288 108.879 169.211 108.865 169.134C108.849 169.042 108.817 168.952 108.77 168.865C108.274 167.493 107.809 166.25 107.375 165.137C106.953 164.005 106.585 163.039 106.269 162.238C105.969 161.434 105.73 160.802 105.554 160.341C105.377 159.881 105.282 159.612 105.269 159.535Z" fill="black"/>
</svg>
